<?xml version="1.0" encoding="UTF-8"?>
<svg xmlns="http://www.w3.org/2000/svg" xmlns:xlink="http://www.w3.org/1999/xlink" viewBox="0 0 24 24" width="24px" height="24px">
<g id="surface49728530">
<path style=" stroke:none;fill-rule:nonzero;fill:rgb(5.098039%,41.176471%,20.784314%);fill-opacity:1;" d="M 12 2 C 6.476562 2 2 6.476562 2 12 C 2 17.523438 6.476562 22 12 22 C 17.523438 22 22 17.523438 22 12 C 22 6.476562 17.523438 2 12 2 Z M 16 13 L 13 13 L 13 16 C 13 16.550781 12.550781 17 12 17 C 11.449219 17 11 16.550781 11 16 L 11 13 L 8 13 C 7.449219 13 7 12.550781 7 12 C 7 11.449219 7.449219 11 8 11 L 11 11 L 11 8 C 11 7.449219 11.449219 7 12 7 C 12.550781 7 13 7.449219 13 8 L 13 11 L 16 11 C 16.550781 11 17 11.449219 17 12 C 17 12.550781 16.550781 13 16 13 Z M 16 13 "/>
</g>
</svg>
