<svg xmlns="http://www.w3.org/2000/svg" width="50" height="72" enable-background="new 0 0 512 512" viewBox="0 0 512 512"><path d="M401.348,128.869l-92.305-92.305l0,0H92.652v438.87h326.696V146.869L401.348,128.869z M110.652,457.435V54.565h198.392   v92.304h92.305v310.565L110.652,457.435L110.652,457.435z"/><path d="M161.99 307.721c0-6.158 4.558-10.718 9.484-10.718 5.173 0 9.361 4.064 9.361 10.718 0 6.526-3.818 10.715-9.484 10.715C166.301 318.436 161.99 314.248 161.99 307.721zM191.916 235.667c4.558-.984 10.716-1.601 16.875-1.601 9.606 0 17.121 1.354 22.54 6.405 4.927 4.311 7.145 11.208 7.145 18.229 0 8.991-2.71 15.273-7.021 19.953-5.174 5.42-13.549 7.883-20.199 7.883-1.108 0-2.217 0-3.203 0v30.916h-16.135v-81.785H191.916zM208.051 273.355c.739.247 1.601.247 2.586.247 8.13 0 11.824-5.789 11.824-13.548 0-7.269-2.956-12.935-10.469-12.935-1.479 0-2.956.247-3.941.616V273.355zM248.198 235.667c4.064-.984 9.978-1.601 16.383-1.601 10.47 0 17.735 2.463 23.031 7.39 7.146 6.405 10.839 17.367 10.839 33.501 0 16.752-4.311 28.699-11.576 35.104-5.543 5.42-13.795 8.006-25.373 8.006-5.05 0-10.101-.492-13.303-.861L248.198 235.667 248.198 235.667zM264.335 304.641c.737.246 1.971.246 2.833.246 7.759 0 14.533-7.638 14.533-30.545 0-16.998-4.435-27.345-14.164-27.345-1.108 0-2.218 0-3.202.37V304.641zM308.672 234.435h36.089v14.041h-19.953v21.308h18.722v13.425h-18.722v34.242h-16.136V234.435z"/></svg>
